<?xml version="1.0" standalone="no"?>
<!DOCTYPE svg PUBLIC "-//W3C//DTD SVG 20010904//EN"
 "http://www.w3.org/TR/2001/REC-SVG-20010904/DTD/svg10.dtd">
<svg version="1.0" xmlns="http://www.w3.org/2000/svg"
 width="1000.000000pt" height="1000.000000pt" viewBox="0 0 1000.000000 1000.000000"
 preserveAspectRatio="xMidYMid meet">
<metadata>
Created by potrace 1.14, written by Peter Selinger 2001-2017
</metadata>
<g transform="translate(0.000000,1000.000000) scale(0.100000,-0.100000)"
fill="#000000" stroke="none">
<path d="M1320 9990 c-25 -4 -62 -11 -82 -14 -173 -28 -387 -111 -545 -212
-134 -85 -255 -195 -378 -345 -30 -35 -115 -165 -115 -175 0 -4 -6 -15 -13
-23 -42 -51 -135 -302 -164 -447 -17 -85 -18 -264 -20 -3749 -1 -3570 -1
-3663 18 -3770 55 -318 198 -594 423 -818 227 -226 505 -365 841 -421 79 -13
545 -15 3745 -13 2010 1 3665 5 3676 9 12 3 39 9 60 12 257 41 576 203 766
389 104 101 203 225 258 322 112 197 170 368 200 590 5 33 8 1689 8 3680 0
3881 2 3688 -49 3880 -125 469 -469 848 -926 1020 -60 23 -158 51 -208 61 -11
2 -54 10 -95 18 -65 13 -556 15 -3715 14 -2002 0 -3660 -4 -3685 -8z"/>
</g>
</svg>
