<?xml version="1.0" standalone="no"?>
<!DOCTYPE svg PUBLIC "-//W3C//DTD SVG 20010904//EN"
 "http://www.w3.org/TR/2001/REC-SVG-20010904/DTD/svg10.dtd">
<svg version="1.0" xmlns="http://www.w3.org/2000/svg"
 width="1000.000000pt" height="1000.000000pt" viewBox="0 0 1000.000000 1000.000000"
 preserveAspectRatio="xMidYMid meet">
<metadata>
Created by potrace 1.14, written by Peter Selinger 2001-2017
</metadata>
<g transform="translate(0.000000,1000.000000) scale(0.100000,-0.100000)"
fill="#000000" stroke="none">
<path d="M1321 9989 c-646 -76 -1176 -576 -1297 -1224 -18 -97 -19 -227 -19
-3765 0 -3538 1 -3668 19 -3765 85 -459 376 -852 786 -1064 131 -68 247 -109
400 -143 l105 -23 3685 0 3685 0 105 23 c612 134 1048 570 1182 1182 l23 105
0 3685 0 3685 -23 105 c-134 610 -564 1042 -1177 1182 l-100 23 -3650 1
c-2007 1 -3683 -2 -3724 -7z m4095 -929 c549 -43 1048 -166 1594 -392 189 -78
453 -205 447 -215 -7 -12 -699 -1358 -741 -1440 l-36 -72 -112 82 c-441 321
-894 466 -1303 416 -392 -48 -671 -289 -692 -596 -16 -237 120 -424 419 -573
121 -59 365 -143 803 -275 391 -118 775 -267 980 -381 162 -91 298 -196 445
-343 162 -163 247 -279 339 -466 155 -311 209 -592 198 -1029 -10 -410 -75
-762 -202 -1091 -178 -460 -480 -791 -989 -1080 -512 -290 -1134 -431 -1826
-412 -424 12 -813 84 -1272 237 -357 119 -652 250 -898 398 -97 58 -316 199
-339 218 -2 2 812 1546 825 1563 2 2 36 -23 76 -56 605 -490 1182 -725 1715
-699 236 11 420 66 578 171 185 123 278 287 292 514 13 219 -88 418 -283 557
-132 95 -382 198 -760 314 -109 34 -293 91 -409 127 -420 130 -713 247 -907
362 -473 282 -713 647 -803 1221 -23 141 -31 550 -16 718 64 681 336 1235 804
1638 408 351 882 535 1512 587 96 8 443 6 561 -3z"/>
</g>
</svg>
